<svg id="accent" xmlns="http://www.w3.org/2000/svg" viewBox="0 0 11.25 9.77"><defs><style></style></defs><title>accent</title><path class="accent-cls-1" d="M5.26,2.3c.15,1.5,1.47,2.38,1.45,4.45a5,5,0,0,1,.62-2.46,5.21,5.21,0,0,0,.76-2C8.18,1.07,7.37.39,6.66.44A1.55,1.55,0,0,0,5.26,2.3" transform="translate(-1.04 -0.44)"/><path class="accent-cls-1" d="M9.58,2.67c-.95,1.15-.64,2.72-2.12,4.16a5.11,5.11,0,0,1,2.18-1.3,5.15,5.15,0,0,0,1.94-.86,1.55,1.55,0,0,0,.31-2.33,1.55,1.55,0,0,0-2.31.33" transform="translate(-1.04 -0.44)"/><path class="accent-cls-1" d="M1.75,4.66c1.15,1,2.72.65,4.16,2.13a4.92,4.92,0,0,1-1.3-2.18,5,5,0,0,0-.87-1.94,1.53,1.53,0,0,0-2.32-.31,1.54,1.54,0,0,0,.33,2.3" transform="translate(-1.04 -0.44)"/><path class="accent-cls-1" d="M8.49,8.38a1.83,1.83,0,1,0-1.83,1.83A1.83,1.83,0,0,0,8.49,8.38" transform="translate(-1.04 -0.44)"/></svg>