<svg id="ast" data-name="Isolation Mode" xmlns="http://www.w3.org/2000/svg" viewBox="0 0 15.07 14.88"><defs><style>.ast-cls-1{fill:#f499b8;}</style></defs><title>ast</title><path class="ast-cls-1" d="M11.86,12.84A8,8,0,0,1,11.09,11,3.93,3.93,0,0,0,9.61,9.23a4,4,0,0,0,2.13.9,7.74,7.74,0,0,1,2,.19,1.48,1.48,0,0,1,.6,2.38A1.5,1.5,0,0,1,11.86,12.84Z" transform="translate(-0.54 -0.95)"/><path class="ast-cls-1" d="M6.8,14a7.84,7.84,0,0,1,1-1.75A4,4,0,0,0,8.2,10a4,4,0,0,0,.63,2.22,7.86,7.86,0,0,1,1.09,1.67,1.38,1.38,0,0,1-.23,1.38,1.77,1.77,0,0,1-1.26.57A1.48,1.48,0,0,1,6.8,14Z" transform="translate(-0.54 -0.95)"/><path class="ast-cls-1" d="M2.73,10.75a7.53,7.53,0,0,1,2-.34A4.06,4.06,0,0,0,6.74,9.35,3.94,3.94,0,0,0,5.4,11.22a7.44,7.44,0,0,1-.63,1.9,1.39,1.39,0,0,1-1.22.68,1.77,1.77,0,0,1-1.23-.63A1.49,1.49,0,0,1,2.73,10.75Z" transform="translate(-0.54 -0.95)"/><path class="ast-cls-1" d="M2.73,5.55A7.75,7.75,0,0,1,4.22,6.87a4,4,0,0,0,2.1.94A3.91,3.91,0,0,0,4,7.93a7.74,7.74,0,0,1-1.88.69A1.38,1.38,0,0,1,.86,8.1,1.76,1.76,0,0,1,.58,6.74a1.78,1.78,0,0,1,.75-1.16A1.37,1.37,0,0,1,2.73,5.55Z" transform="translate(-0.54 -0.95)"/><path class="ast-cls-1" d="M6.8,2.31a7.86,7.86,0,0,1-.11,2,3.94,3.94,0,0,0,.58,2.23A3.91,3.91,0,0,0,5.74,4.81,7.93,7.93,0,0,1,4,3.78a1.39,1.39,0,0,1-.39-1.35,1.79,1.79,0,0,1,.88-1.07A1.84,1.84,0,0,1,5.9,1.23,1.41,1.41,0,0,1,6.8,2.31Z" transform="translate(-0.54 -0.95)"/><path class="ast-cls-1" d="M11.87,3.47a8.1,8.1,0,0,1-1.62,1.16A3.86,3.86,0,0,0,8.86,6.46,3.87,3.87,0,0,0,9.25,4.2a7.86,7.86,0,0,1-.26-2A1.4,1.4,0,0,1,9.8,1.07a1.82,1.82,0,0,1,2.35,1A1.42,1.42,0,0,1,11.87,3.47Z" transform="translate(-0.54 -0.95)"/><path class="ast-cls-1" d="M14.12,8.15a7.63,7.63,0,0,1-1.92-.54,4,4,0,0,0-2.3.06,4,4,0,0,0,2-1.11A7.75,7.75,0,0,1,13.3,5.13a1.48,1.48,0,0,1,2.24,1,1.78,1.78,0,0,1-.17,1.37A1.38,1.38,0,0,1,14.12,8.15Z" transform="translate(-0.54 -0.95)"/></svg>