<svg id="blink_circle" data-name="Layer 1" xmlns="http://www.w3.org/2000/svg" viewBox="0 0 98.62 98.61"><defs><style></style></defs><title>blink-circle</title><path class="blink_circle-cls-1" d="M98.39,55.09c-1.54-.19-2.44-1.67-4.62-1.82,2.18.19,3.22-1.14,4.8-1.08,1.32.06,1.88.91,1.85,1.6S99.72,55.24,98.39,55.09Z" transform="translate(-1.92 -0.51)"/><path class="blink_circle-cls-1" d="M97.52,60.24a4.87,4.87,0,0,1-1.93-1.14,5.47,5.47,0,0,0-2.43-1.17c2.14.43,3.31-.78,4.88-.54,1.3.2,1.78,1.1,1.67,1.79S98.79,60.53,97.52,60.24Z" transform="translate(-1.92 -0.51)"/><path class="blink_circle-cls-1" d="M96.08,65.26c-1.49-.53-1.93-2.13-4-2.76,2.08.66,3.36-.42,4.9,0,1.27.35,1.65,1.3,1.47,2A1.7,1.7,0,0,1,96.08,65.26Z" transform="translate(-1.92 -0.51)"/><path class="blink_circle-cls-1" d="M94.11,70.1c-1.43-.69-1.71-2.35-3.72-3.2,2,.9,3.43,0,4.89.55,1.21.47,1.56,1.5,1.23,2.11A1.71,1.71,0,0,1,94.11,70.1Z" transform="translate(-1.92 -0.51)"/><path class="blink_circle-cls-1" d="M91.62,74.69c-1.34-.84-1.45-2.53-3.36-3.6,1.89,1.1,3.47.39,4.84,1.1,1.19.63,1.31,1.63.94,2.22A1.67,1.67,0,0,1,91.62,74.69Z" transform="translate(-1.92 -0.51)"/><path class="blink_circle-cls-1" d="M88.65,79c-1.24-1-1.19-2.69-3-4,1.75,1.3,3.38.75,4.7,1.63a1.6,1.6,0,0,1,.68,2.3A1.65,1.65,0,0,1,88.65,79Z" transform="translate(-1.92 -0.51)"/><path class="blink_circle-cls-1" d="M85.23,82.94c-1.13-1.12-.9-2.82-2.52-4.28,1.6,1.49,3.26,1.1,4.47,2.13a1.51,1.51,0,1,1-2,2.15Z" transform="translate(-1.92 -0.51)"/><path class="blink_circle-cls-1" d="M81.4,86.49c-1-1.23-.59-2.91-2.05-4.53,1.43,1.65,3.11,1.43,4.2,2.58a1.66,1.66,0,0,1,.2,2.43A1.61,1.61,0,0,1,81.4,86.49Z" transform="translate(-1.92 -0.51)"/><path class="blink_circle-cls-1" d="M77.18,89.57a4.84,4.84,0,0,1-.59-2.16,5.5,5.5,0,0,0-.93-2.54c1.24,1.8,2.92,1.75,3.88,3a1.68,1.68,0,0,1-.06,2.45C79,90.76,77.9,90.68,77.18,89.57Z" transform="translate(-1.92 -0.51)"/><path class="blink_circle-cls-1" d="M72.65,92.17c-.71-1.42.1-2.87-1-4.8,1,1.93,2.7,2,3.51,3.41a1.52,1.52,0,1,1-2.54,1.39Z" transform="translate(-1.92 -0.51)"/><path class="blink_circle-cls-1" d="M67.86,94.26c-.54-1.49.41-2.87-.43-4.88a5.44,5.44,0,0,0,1.62,2.14,4.85,4.85,0,0,1,1.5,1.66c.54,1.18.07,2.16-.59,2.37A1.72,1.72,0,0,1,67.86,94.26Z" transform="translate(-1.92 -0.51)"/><path class="blink_circle-cls-1" d="M62.88,95.82c-.38-1.54.72-2.83.1-4.92.58,2.1,2.21,2.69,2.7,4.16.41,1.28-.19,2.09-.87,2.25S63.19,97.1,62.88,95.82Z" transform="translate(-1.92 -0.51)"/><path class="blink_circle-cls-1" d="M57.75,96.82c-.2-1.58,1-2.75.65-4.9.34,2.16,1.89,2.91,2.22,4.46.27,1.29-.43,2-1.11,2.12S57.92,98.13,57.75,96.82Z" transform="translate(-1.92 -0.51)"/><path class="blink_circle-cls-1" d="M52.54,97.25c0-1.59,1.33-2.63,1.18-4.81.11,2.19,1.57,3.08,1.73,4.66.12,1.32-.65,2-1.34,2S52.57,98.57,52.54,97.25Z" transform="translate(-1.92 -0.51)"/><path class="blink_circle-cls-1" d="M47.32,97.12c.15-1.58,1.6-2.48,1.7-4.66-.13,2.18,1.22,3.22,1.21,4.8,0,1.32-.86,1.89-1.55,1.86S47.21,98.43,47.32,97.12Z" transform="translate(-1.92 -0.51)"/><path class="blink_circle-cls-1" d="M42.15,96.42c.31-1.55,1.86-2.3,2.19-4.46-.37,2.16.87,3.33.68,4.9-.17,1.31-1.06,1.79-1.75,1.69S41.89,97.72,42.15,96.42Z" transform="translate(-1.92 -0.51)"/><path class="blink_circle-cls-1" d="M37.07,95.16c.49-1.5,2.12-2.09,2.68-4.2-.6,2.1.5,3.39.14,4.93-.31,1.28-1.25,1.67-1.93,1.5A1.61,1.61,0,0,1,37.07,95.16Z" transform="translate(-1.92 -0.51)"/><path class="blink_circle-cls-1" d="M32.19,93.31a5,5,0,0,1,1.49-1.68,5.58,5.58,0,0,0,1.62-2.16c-.84,2,.12,3.4-.41,4.89-.45,1.24-1.43,1.53-2.08,1.29S31.65,94.51,32.19,93.31Z" transform="translate(-1.92 -0.51)"/><path class="blink_circle-cls-1" d="M27.54,90.93c.81-1.37,2.46-1.48,3.49-3.44-1.05,1.92-.24,3.38-.94,4.81a1.7,1.7,0,0,1-2.22,1.06A1.68,1.68,0,0,1,27.54,90.93Z" transform="translate(-1.92 -0.51)"/><path class="blink_circle-cls-1" d="M23.17,88.06c.95-1.27,2.63-1.22,3.86-3-1.28,1.81-.64,3.36-1.48,4.69-.7,1.1-1.77,1.23-2.31.8A1.71,1.71,0,0,1,23.17,88.06Z" transform="translate(-1.92 -0.51)"/><path class="blink_circle-cls-1" d="M19.14,84.74c1.09-1.16,2.76-.95,4.18-2.61-1.44,1.64-1.05,3.33-2,4.54-.84,1-1.85,1-2.36.5A1.68,1.68,0,0,1,19.14,84.74Z" transform="translate(-1.92 -0.51)"/><path class="blink_circle-cls-1" d="M15.49,81c1.21-1,2.87-.65,4.46-2.15-1.62,1.47-1.38,3.18-2.5,4.3a1.61,1.61,0,0,1-2.39.24A1.65,1.65,0,0,1,15.49,81Z" transform="translate(-1.92 -0.51)"/><path class="blink_circle-cls-1" d="M12.27,76.89c1.31-.89,2.93-.34,4.68-1.66-1.77,1.29-1.71,3-2.94,4a1.63,1.63,0,0,1-2.42,0A1.62,1.62,0,0,1,12.27,76.89Z" transform="translate(-1.92 -0.51)"/><path class="blink_circle-cls-1" d="M9.51,72.46c1.39-.74,3,0,4.84-1.15-1.89,1.09-2,2.78-3.34,3.63a1.66,1.66,0,0,1-2.42-.27A1.6,1.6,0,0,1,9.51,72.46Z" transform="translate(-1.92 -0.51)"/><path class="blink_circle-cls-1" d="M7.3,67.72a4.92,4.92,0,0,1,2.23-.16,5.55,5.55,0,0,0,2.67-.43c-2,.87-2.28,2.53-3.7,3.23a1.69,1.69,0,0,1-2.4-.53C5.79,69.23,6.07,68.21,7.3,67.72Z" transform="translate(-1.92 -0.51)"/><path class="blink_circle-cls-1" d="M5.62,62.77c1.54-.42,2.78.66,4.9,0-2.09.64-2.53,2.26-4,2.8a1.71,1.71,0,0,1-2.34-.79C4,64.11,4.35,63.12,5.62,62.77Z" transform="translate(-1.92 -0.51)"/><path class="blink_circle-cls-1" d="M4.49,57.67c1.57-.24,2.73,1,4.87.52-2.19.41-2.78,2-4.32,2.33-1.27.3-2.11-.35-2.22-1S3.19,57.88,4.49,57.67Z" transform="translate(-1.92 -0.51)"/><path class="blink_circle-cls-1" d="M3.92,52.48c1.59-.07,2.63,1.25,4.8,1.05a5.54,5.54,0,0,0-2.55.91,4.81,4.81,0,0,1-2,.93c-1.31.16-2-.58-2.06-1.28S2.61,52.55,3.92,52.48Z" transform="translate(-1.92 -0.51)"/><path class="blink_circle-cls-1" d="M3.92,47.26c1.59.1,2.49,1.53,4.67,1.57-2.18-.08-3.24,1.31-4.78,1.33-1.34,0-1.93-.8-1.88-1.5A1.68,1.68,0,0,1,3.92,47.26Z" transform="translate(-1.92 -0.51)"/><path class="blink_circle-cls-1" d="M4.49,42.07c1.56.27,2.31,1.79,4.48,2.07-2.16-.31-3.34,1-4.92.8-1.31-.13-1.8-1-1.69-1.69A1.67,1.67,0,0,1,4.49,42.07Z" transform="translate(-1.92 -0.51)"/><path class="blink_circle-cls-1" d="M5.62,37c1.52.44,2.11,2,4.23,2.55-2.11-.54-3.4.58-5,.26-1.29-.27-1.68-1.2-1.51-1.87A1.65,1.65,0,0,1,5.62,37Z" transform="translate(-1.92 -0.51)"/><path class="blink_circle-cls-1" d="M7.3,32c1.46.61,1.89,2.27,3.94,3-2-.77-3.43.21-4.94-.28C5,34.34,4.75,33.37,5,32.71A1.64,1.64,0,0,1,7.3,32Z" transform="translate(-1.92 -0.51)"/><path class="blink_circle-cls-1" d="M9.51,27.29c1.38.77,1.64,2.47,3.6,3.43-1.94-1-3.42-.16-4.87-.82a1.66,1.66,0,0,1-1.09-2.17A1.6,1.6,0,0,1,9.51,27.29Z" transform="translate(-1.92 -0.51)"/><path class="blink_circle-cls-1" d="M12.27,22.85a5,5,0,0,1,1.35,1.78,5.57,5.57,0,0,0,1.82,2c-1.82-1.21-3.37-.53-4.73-1.34A1.68,1.68,0,0,1,9.85,23C10.18,22.41,11.18,22.09,12.27,22.85Z" transform="translate(-1.92 -0.51)"/><path class="blink_circle-cls-1" d="M15.49,18.74c1.19,1.06,1,2.7,2.71,4.09-1.68-1.4-3.27-.89-4.54-1.84A1.71,1.71,0,0,1,13,18.6,1.7,1.7,0,0,1,15.49,18.74Z" transform="translate(-1.92 -0.51)"/><path class="blink_circle-cls-1" d="M19.14,15c1.06,1.18.7,2.82,2.24,4.37-1.54-1.6-3.18-1.27-4.32-2.35-.95-.9-.88-2-.34-2.42A1.7,1.7,0,0,1,19.14,15Z" transform="translate(-1.92 -0.51)"/><path class="blink_circle-cls-1" d="M23.17,11.68c.93,1.29.4,2.89,1.76,4.6-1.33-1.72-3.07-1.66-4.07-2.84-.86-1-.6-2,0-2.41A1.68,1.68,0,0,1,23.17,11.68Z" transform="translate(-1.92 -0.51)"/><path class="blink_circle-cls-1" d="M27.54,8.81c.78,1.38.09,2.94,1.25,4.79-1.13-1.87-2.85-2-3.74-3.28a1.61,1.61,0,0,1,.23-2.39A1.66,1.66,0,0,1,27.54,8.81Z" transform="translate(-1.92 -0.51)"/><path class="blink_circle-cls-1" d="M32.19,6.44c.62,1.45-.23,2.94.73,4.91-.92-2-2.61-2.25-3.35-3.65a1.63,1.63,0,0,1,.48-2.37C30.66,5,31.66,5.22,32.19,6.44Z" transform="translate(-1.92 -0.51)"/><path class="blink_circle-cls-1" d="M37.07,4.58c.46,1.52-.54,2.92.19,5-.69-2.07-2.33-2.51-2.91-4a1.65,1.65,0,0,1,.73-2.32C35.72,3,36.69,3.32,37.07,4.58Z" transform="translate(-1.92 -0.51)"/><path class="blink_circle-cls-1" d="M42.15,3.32c.28,1.52-.88,2.8-.37,4.94-.47-2.14-2-2.73-2.46-4.27a1.69,1.69,0,0,1,1-2.24A1.38,1.38,0,0,1,41.38,2,2.2,2.2,0,0,1,42.15,3.32Z" transform="translate(-1.92 -0.51)"/><path class="blink_circle-cls-1" d="M47.33,2.62a5.06,5.06,0,0,1-.52,2.18,5.42,5.42,0,0,0-.4,2.66c-.22-2.17-1.72-2.92-2-4.49A1.71,1.71,0,0,1,45.66.83C46.33.7,47.23,1.33,47.33,2.62Z" transform="translate(-1.92 -0.51)"/><path class="blink_circle-cls-1" d="M52.55,2.49C52.49,4.08,51.08,5,51.11,7.17c0-2.18-1.4-3.08-1.46-4.66a1.71,1.71,0,0,1,1.44-2C51.77.51,52.59,1.18,52.55,2.49Z" transform="translate(-1.92 -0.51)"/><path class="blink_circle-cls-1" d="M57.75,2.92c-.23,1.57-1.73,2.33-1.94,4.5.26-2.21-1.05-3.22-.94-4.81C55,1.3,55.83.71,56.52.79A1.72,1.72,0,0,1,57.75,2.92Z" transform="translate(-1.92 -0.51)"/><path class="blink_circle-cls-1" d="M62.88,3.92c-.41,1.54-2,2.13-2.43,4.27a5.57,5.57,0,0,0-.11-2.7,4.83,4.83,0,0,1-.29-2.22c.23-1.29,1.16-1.79,1.83-1.59A1.7,1.7,0,0,1,62.88,3.92Z" transform="translate(-1.92 -0.51)"/><path class="blink_circle-cls-1" d="M67.86,5.48c-.57,1.48-2.2,1.91-2.89,4,.72-2.05-.28-3.49.16-5,.38-1.28,1.33-1.59,2-1.35A1.68,1.68,0,0,1,67.86,5.48Z" transform="translate(-1.92 -0.51)"/><path class="blink_circle-cls-1" d="M72.65,7.57c-.73,1.41-2.41,1.68-3.32,3.66.94-2,.09-3.46.7-4.92.52-1.21,1.5-1.42,2.13-1.12A1.67,1.67,0,0,1,72.65,7.57Z" transform="translate(-1.92 -0.51)"/><path class="blink_circle-cls-1" d="M77.18,10.17c-.88,1.32-2.59,1.42-3.72,3.29,1.16-1.85.46-3.41,1.24-4.8a1.62,1.62,0,0,1,2.24-.89A1.63,1.63,0,0,1,77.18,10.17Z" transform="translate(-1.92 -0.51)"/><path class="blink_circle-cls-1" d="M81.4,13.25c-1,1.21-2.74,1.14-4.06,2.87,1.35-1.71.82-3.32,1.74-4.61a1.66,1.66,0,0,1,2.34-.66A1.61,1.61,0,0,1,81.4,13.25Z" transform="translate(-1.92 -0.51)"/><path class="blink_circle-cls-1" d="M85.23,16.81a5,5,0,0,1-2,1,5.77,5.77,0,0,0-2.32,1.4c1.54-1.55,1.17-3.2,2.22-4.38a1.69,1.69,0,0,1,2.42-.41C86.06,14.84,86.18,15.89,85.23,16.81Z" transform="translate(-1.92 -0.51)"/><path class="blink_circle-cls-1" d="M88.65,20.75c-1.27,1-2.84.45-4.53,1.88,1.69-1.38,1.49-3,2.67-4.11a1.71,1.71,0,0,1,2.46-.15A1.69,1.69,0,0,1,88.65,20.75Z" transform="translate(-1.92 -0.51)"/><path class="blink_circle-cls-1" d="M91.62,25.05c-1.36.82-2.9.15-4.71,1.37a5.52,5.52,0,0,0,1.79-2A4.77,4.77,0,0,1,90,22.62c1.06-.76,2.1-.48,2.43.13A1.69,1.69,0,0,1,91.62,25.05Z" transform="translate(-1.92 -0.51)"/><path class="blink_circle-cls-1" d="M94.11,29.64c-1.44.66-2.92-.16-4.85.85,1.94-1,2.22-2.7,3.57-3.45,1.17-.66,2.07-.21,2.36.42A1.66,1.66,0,0,1,94.11,29.64Z" transform="translate(-1.92 -0.51)"/><path class="blink_circle-cls-1" d="M96.08,34.48c-1.5.5-2.89-.48-4.93.31,2-.75,2.47-2.42,3.93-3a1.62,1.62,0,0,1,2.31.68A1.67,1.67,0,0,1,96.08,34.48Z" transform="translate(-1.92 -0.51)"/><path class="blink_circle-cls-1" d="M97.52,39.5c-1.56.33-2.85-.79-5-.23,2.12-.52,2.71-2.13,4.23-2.58,1.27-.37,2.06.25,2.23.93S98.81,39.22,97.52,39.5Z" transform="translate(-1.92 -0.51)"/><path class="blink_circle-cls-1" d="M98.39,44.65c-1.58.16-2.76-1.09-4.92-.77,2.17-.29,2.92-1.81,4.48-2.1A1.65,1.65,0,0,1,100.08,43C100.18,43.62,99.7,44.52,98.39,44.65Z" transform="translate(-1.92 -0.51)"/><path class="blink_circle-cls-1" d="M98.69,49.87c-1.59,0-2.63-1.39-4.81-1.31,2.18,0,3.08-1.48,4.66-1.59,1.32-.09,2,.7,2,1.39S100,49.88,98.69,49.87Z" transform="translate(-1.92 -0.51)"/><path class="blink_circle-cls-2" d="M72.66,37.79A6.76,6.76,0,0,0,67,41.34V67.6c1,1.76,2.67,3.55,5.12,3.55,3.56,0,5.77-2.77,7-6.33a36,36,0,0,0,1.5-10.74,28.37,28.37,0,0,0-2.14-11.46C77.17,39.69,75.19,37.79,72.66,37.79Z" transform="translate(-1.92 -0.51)"/><path class="blink_circle-cls-2" d="M16.21,40a20.68,20.68,0,0,1,12.6-4.93,10.78,10.78,0,0,1,7.41,2.66s.81.74.72,1.3l0,.21-.26.18-.27,0a.6.6,0,0,1-.48-.2,2.94,2.94,0,0,0-.57-.49,11.36,11.36,0,0,0-6.8-2.1,18.71,18.71,0,0,0-11.42,4.45C9.48,47.3,8.42,57.3,14.58,64.86A18,18,0,0,0,29,71.65c6.11,0,12.62-2.56,18.34-7.21a38.48,38.48,0,0,0,7-7.44V18.72H50.71v-.91H67V39.24a9.63,9.63,0,0,1,3.22-2.79A14.35,14.35,0,0,1,76.77,35a16.14,16.14,0,0,1,10.44,4.59c3.28,3.12,5.78,8,5.83,15a41.25,41.25,0,0,0,.27-4.62,42.07,42.07,0,0,0-84.14,0c0,.32,0,.62.05.93A20.69,20.69,0,0,1,16.21,40Z" transform="translate(-1.92 -0.51)"/><path class="blink_circle-cls-2" d="M87.05,69.88a16.26,16.26,0,0,1-10.59,4.27,11.62,11.62,0,0,1-6.64-1.82A8.35,8.35,0,0,1,67,69.63v4.42H50.71V73h3.61V59.56a36.45,36.45,0,0,1-5.94,6.13C41.92,71,34.32,74,27.54,74h0a19.07,19.07,0,0,1-14.19-5.9,42,42,0,0,0,76.51-1.52A17.37,17.37,0,0,1,87.05,69.88Z" transform="translate(-1.92 -0.51)"/><path class="blink_circle-cls-2" d="M85.4,93.06v.25l-.3,0h-1v4a1.83,1.83,0,0,0,0,.21h-.45a1.83,1.83,0,0,0,0-.21v-4H82.6a1.49,1.49,0,0,0-.28,0v-.25Z" transform="translate(-1.92 -0.51)"/><path class="blink_circle-cls-2" d="M86.39,97.34v.18h-.22l0-.09,0-.11.67-4.08a0,0,0,0,0,0,0,.51.51,0,0,0,0-.09v-.06h.39v0l0,.1,1.33,3.87L90,93.19a.34.34,0,0,0,0-.1v0h.4v.13L91,97.34l0,.09,0,.09h-.45a.49.49,0,0,0,0-.11.13.13,0,0,0,0-.06l-.57-3.8-1.31,3.79a.38.38,0,0,0,0,.18h-.38a.34.34,0,0,0,0-.15L87,93.66Z" transform="translate(-1.92 -0.51)"/></svg>