<svg id="instagram" data-name="Layer 1" xmlns="http://www.w3.org/2000/svg" viewBox="0 0 132.68 132.67"><title>instagram</title><path d="M93.64,4.57H42.72A40.89,40.89,0,0,0,1.84,45.46V96.37a40.88,40.88,0,0,0,40.88,40.88H93.64a40.87,40.87,0,0,0,40.87-40.88V45.46A40.88,40.88,0,0,0,93.64,4.57Zm28.14,86.92a33,33,0,0,1-33,33H47.6a33,33,0,0,1-33-33V50.34a33,33,0,0,1,33-33H88.75a33,33,0,0,1,33,33Z" transform="translate(-1.84 -4.57)"/><path d="M70,36.2A34.95,34.95,0,1,0,104.9,71.14,34.94,34.94,0,0,0,70,36.2Zm0,56a21,21,0,1,1,21-21A21,21,0,0,1,70,92.17Z" transform="translate(-1.84 -4.57)"/><path d="M111.37,35.65a8.89,8.89,0,1,1-8.89-8.89A8.9,8.9,0,0,1,111.37,35.65Z" transform="translate(-1.84 -4.57)"/></svg>