<svg id="learn-more" data-name="Isolation Mode" xmlns="http://www.w3.org/2000/svg" viewBox="0 0 35.62 35.44"><defs><style></style></defs><title>learnmore</title><path class="learn-more-cls-1" d="M33.86,22.3c-1.22-.35-1.73-1.58-3.49-1.87,1.72.35,2.67-.61,3.94-.5a1.25,1.25,0,1,1-.45,2.37Z" transform="translate(-0.3 -0.21)"/><path class="learn-more-cls-1" d="M32.34,26.1c-1.07-.63-1.31-2-2.91-2.68a4.27,4.27,0,0,0,2.12.39,4.2,4.2,0,0,1,1.8.1,1.25,1.25,0,1,1-1,2.19Z" transform="translate(-0.3 -0.21)"/><path class="learn-more-cls-1" d="M29.88,29.39c-.89-.92-.73-2.24-2.1-3.34,1.32,1.16,2.59.77,3.65,1.48a1.26,1.26,0,1,1-1.55,1.86Z" transform="translate(-0.3 -0.21)"/><path class="learn-more-cls-1" d="M26.65,31.92a4.42,4.42,0,0,1-.42-1.76,4.28,4.28,0,0,0-.75-2c1,1.45,2.34,1.45,3.15,2.39a1.25,1.25,0,1,1-2,1.38Z" transform="translate(-0.3 -0.21)"/><path class="learn-more-cls-1" d="M22.89,33.55c-.32-1.21.47-2.33-.18-4a4.32,4.32,0,0,0,1.23,1.77,4.42,4.42,0,0,1,1.21,1.34,1.25,1.25,0,1,1-2.26.85Z" transform="translate(-0.3 -0.21)"/><path class="learn-more-cls-1" d="M18.86,34.18c0-1.28,1-2.1.79-3.87.15,1.75,1.34,2.37,1.6,3.62a1.25,1.25,0,1,1-2.39.25Z" transform="translate(-0.3 -0.21)"/><path class="learn-more-cls-1" d="M14.79,33.87c.28-1.24,1.49-1.85,1.67-3.6a4.44,4.44,0,0,0,.27,2.14,4.32,4.32,0,0,1,.45,1.75c-.05,1.05-.8,1.54-1.4,1.43A1.32,1.32,0,0,1,14.79,33.87Z" transform="translate(-0.3 -0.21)"/><path class="learn-more-cls-1" d="M10.91,32.55c.58-1.12,1.88-1.38,2.5-3-.67,1.62.09,2.73-.26,4a1.31,1.31,0,0,1-1.7,1A1.32,1.32,0,0,1,10.91,32.55Z" transform="translate(-0.3 -0.21)"/><path class="learn-more-cls-1" d="M7.47,30.34c.83-.94,2.2-.91,3.19-2.35a4.32,4.32,0,0,0-.78,2,4.36,4.36,0,0,1-.45,1.74,1.3,1.3,0,0,1-1.91.59A1.31,1.31,0,0,1,7.47,30.34Z" transform="translate(-0.3 -0.21)"/><path class="learn-more-cls-1" d="M4.71,27.31C5.78,26.59,7,27,8.38,25.86,7,26.94,7.14,28.27,6.24,29.18a1.33,1.33,0,0,1-2,.08A1.33,1.33,0,0,1,4.71,27.31Z" transform="translate(-0.3 -0.21)"/><path class="learn-more-cls-1" d="M2.81,23.68a4.52,4.52,0,0,1,1.8-.1,4.29,4.29,0,0,0,2.13-.38c-1.62.7-1.85,2-2.93,2.67a1.58,1.58,0,0,1-1.23.2,1.18,1.18,0,0,1-.71-.63,1.16,1.16,0,0,1,0-1A1.59,1.59,0,0,1,2.81,23.68Z" transform="translate(-0.3 -0.21)"/><path class="learn-more-cls-1" d="M1.88,19.69c1.28-.1,2.19.87,3.91.53-1.75.27-2.25,1.5-3.48,1.84a1.32,1.32,0,0,1-1.79-.91A1.33,1.33,0,0,1,1.88,19.69Z" transform="translate(-0.3 -0.21)"/><path class="learn-more-cls-1" d="M2,15.61c1.23.2,1.93,1.37,3.69,1.46C3.89,16.91,3,18,1.8,18a1.61,1.61,0,0,1-1.18-.42A1.17,1.17,0,0,1,.3,16.7,1.31,1.31,0,0,1,2,15.61Z" transform="translate(-0.3 -0.21)"/><path class="learn-more-cls-1" d="M3,11.66c1.18.51,1.51,1.78,3.21,2.29-1.66-.57-2.7.27-3.95,0a1.32,1.32,0,0,1-1.15-1.63A1.33,1.33,0,0,1,3,11.66Z" transform="translate(-0.3 -0.21)"/><path class="learn-more-cls-1" d="M5,8.09A4.51,4.51,0,0,1,6.09,9.56a4.2,4.2,0,0,0,1.46,1.57c-1.46-1-2.71-.45-3.82-1a1.61,1.61,0,0,1-.84-.93A1.16,1.16,0,0,1,3,8.25,1.3,1.3,0,0,1,5,8.09Z" transform="translate(-0.3 -0.21)"/><path class="learn-more-cls-1" d="M7.92,5.16c.75,1,.42,2.33,1.62,3.6-1.17-1.35-2.46-1.11-3.41-2a1.31,1.31,0,0,1-.18-2A1.33,1.33,0,0,1,7.92,5.16Z" transform="translate(-0.3 -0.21)"/><path class="learn-more-cls-1" d="M11.46,3.11c.47,1.18-.2,2.32.65,3.89C11.34,5.42,10,5.26,9.31,4.19a1.31,1.31,0,0,1,.35-2A1.32,1.32,0,0,1,11.46,3.11Z" transform="translate(-0.3 -0.21)"/><path class="learn-more-cls-1" d="M15.39,2c.17,1.26-.75,2.26-.32,4a4.22,4.22,0,0,0-1-1.91,4.45,4.45,0,0,1-1-1.49A1.3,1.3,0,0,1,13.86.71,1.31,1.31,0,0,1,15.39,2Z" transform="translate(-0.3 -0.21)"/><path class="learn-more-cls-1" d="M19.44,1.79a4.25,4.25,0,0,1-.64,1.68,4.29,4.29,0,0,0-.54,2.09c0-1.75-1.1-2.51-1.21-3.78A1.3,1.3,0,0,1,18.24.21C18.82.17,19.52.74,19.44,1.79Z" transform="translate(-0.3 -0.21)"/><path class="learn-more-cls-1" d="M23.47,2.53c-.42,1.2-1.68,1.67-2.06,3.38.46-1.73-.47-2.67-.29-3.93A1.32,1.32,0,0,1,22.66.7,1.34,1.34,0,0,1,23.47,2.53Z" transform="translate(-0.3 -0.21)"/><path class="learn-more-cls-1" d="M27.17,4.29c-.71,1-2,1.14-2.84,2.73.86-1.52.23-2.72.72-3.89a1.31,1.31,0,0,1,1.82-.82A1.32,1.32,0,0,1,27.17,4.29Z" transform="translate(-0.3 -0.21)"/><path class="learn-more-cls-1" d="M30.3,7c-.95.81-2.28.59-3.47,1.89A4.42,4.42,0,0,0,27.88,7a4.33,4.33,0,0,1,.67-1.68,1.29,1.29,0,0,1,2-.31,1.15,1.15,0,0,1,.37.87A1.58,1.58,0,0,1,30.3,7Z" transform="translate(-0.3 -0.21)"/><path class="learn-more-cls-1" d="M32.62,10.34c-1.15.55-2.37,0-3.85.92,1.55-.9,1.57-2.21,2.59-3a1.32,1.32,0,0,1,2,.2A1.33,1.33,0,0,1,32.62,10.34Z" transform="translate(-0.3 -0.21)"/><path class="learn-more-cls-1" d="M34,14.2c-1.25.25-2.25-.62-3.95-.08,1.69-.46,2.09-1.75,3.28-2.23a1.32,1.32,0,0,1,1.86.7A1.33,1.33,0,0,1,34,14.2Z" transform="translate(-0.3 -0.21)"/><path class="learn-more-cls-1" d="M34.41,18.25c-1.28,0-2.09-1.12-3.84-1a4.36,4.36,0,0,0,2-.66,4.42,4.42,0,0,1,1.64-.74c1-.14,1.66.51,1.66,1.11A1.32,1.32,0,0,1,34.41,18.25Z" transform="translate(-0.3 -0.21)"/><circle class="learn-more-cls-2" cx="17.8" cy="18.06" r="12.14"/><polygon class="learn-more-cls-3" points="22.55 16.25 17.8 21.01 13.04 16.25 10.38 16.25 17.8 24.13 25.21 16.25 22.55 16.25"/></svg>