<svg id="logo" data-name="Layer 1" xmlns="http://www.w3.org/2000/svg" viewBox="0 0 609.45 229.18"><defs><style>.logo-cls-1,.cls-5{fill:#f6a7be;}.logo-cls-2{fill:#f4a6bd;}.logo-cls-3,.cls-4{fill:#7d868c;}.logo-cls-3,.cls-5{fill-rule:evenodd;}</style></defs><title>logo</title><path class="logo-cls-1" d="M460.18,194.5v1.66a2.62,2.62,0,0,0-.95-.15H453.1v7.85h6a3.36,3.36,0,0,0,1.14-.12v1.66a4,4,0,0,0-1.11-.09h-6v8.07h5.95a4.92,4.92,0,0,0,1.17-.16V215H449.56a3.24,3.24,0,0,0,.13-1V195.49a3.08,3.08,0,0,0-.13-1Z" transform="translate(1.18 0.63)"/><path class="logo-cls-1" d="M468.16,211.31c2,1.76,3.08,2.25,4.87,2.25,2.31,0,3.91-1.45,3.91-3.54a3.28,3.28,0,0,0-1.48-2.83,24.37,24.37,0,0,0-3-1.57c-3.51-1.67-4.86-3.27-4.86-5.73,0-3.39,2.77-5.7,6.8-5.7a10.7,10.7,0,0,1,4.78,1.11l-.65,2.19a7.18,7.18,0,0,0-4.34-1.66,3.15,3.15,0,0,0-3.36,3c0,1.7.8,2.47,4.25,4,2.16,1,3.23,1.72,4,2.71a5.45,5.45,0,0,1,1.14,3.45,6.33,6.33,0,0,1-2.49,5,8,8,0,0,1-4.56,1.26,10.91,10.91,0,0,1-5.69-1.57Z" transform="translate(1.18 0.63)"/><path class="logo-cls-1" d="M500.87,194.5v1.88a5.75,5.75,0,0,0-1.27-.15h-4.46v17.82a3.58,3.58,0,0,0,.12,1H491.6a3.58,3.58,0,0,0,.12-1V196.23h-4.46a5.46,5.46,0,0,0-1.3.15V194.5Z" transform="translate(1.18 0.63)"/><path class="logo-cls-1" d="M509.89,213.47a2.08,2.08,0,1,1-2-1.79A1.86,1.86,0,0,1,509.89,213.47Z" transform="translate(1.18 0.63)"/><path class="logo-cls-1" d="M518.58,212.82c5.23-4.68,7.88-9.08,7.88-13,0-2.37-1.33-3.76-3.54-3.76a6,6,0,0,0-3.54,1.23l-.31-2.09a12.1,12.1,0,0,1,4.74-1,6.13,6.13,0,0,1,4.19,1.33,5.31,5.31,0,0,1,1.85,3.94c0,2.09-1,4.43-3.11,7.39a24.89,24.89,0,0,1-5,5.29l-.5.47h7.49c.92,0,1,0,1.38-.16V215H518.45a2.93,2.93,0,0,0,.13-.9Z" transform="translate(1.18 0.63)"/><path class="logo-cls-1" d="M550.66,197.24c.9,1.79,1.2,3.67,1.2,7.45s-.3,5.76-1.23,7.61a5.49,5.49,0,0,1-5.39,3,5.62,5.62,0,0,1-5.42-2.93c-1-1.85-1.26-3.63-1.26-7.64s.31-5.91,1.3-7.69c1.13-2.07,2.71-2.9,5.42-2.9A5.51,5.51,0,0,1,550.66,197.24Zm-8.13.71c-.46,1.36-.58,2.74-.58,6.47,0,4.34.12,5.82.58,7.29a2.8,2.8,0,0,0,2.68,2,2.85,2.85,0,0,0,2.74-2.16c.43-1.42.53-2.8.53-6.77,0-4.13-.13-5.61-.59-6.9a2.9,2.9,0,0,0-2.74-2.12A3,3,0,0,0,542.53,198Z" transform="translate(1.18 0.63)"/><path class="logo-cls-1" d="M571.26,197.24c.9,1.79,1.2,3.67,1.2,7.45s-.3,5.76-1.23,7.61a5.49,5.49,0,0,1-5.39,3c-2.58,0-4.34-1-5.41-2.93s-1.27-3.63-1.27-7.64.31-5.91,1.3-7.69c1.14-2.07,2.71-2.9,5.42-2.9A5.5,5.5,0,0,1,571.26,197.24Zm-8.12.71c-.47,1.36-.59,2.74-.59,6.47,0,4.34.12,5.82.59,7.29a2.78,2.78,0,0,0,2.67,2,2.85,2.85,0,0,0,2.74-2.16c.44-1.42.53-2.8.53-6.77,0-4.13-.12-5.61-.59-6.9a2.9,2.9,0,0,0-2.74-2.12A2.94,2.94,0,0,0,563.14,198Z" transform="translate(1.18 0.63)"/><path class="logo-cls-1" d="M592.7,209c0,4.24-2,6.31-6.22,6.31s-6.38-2-6.38-6.1c0-3.14,1-4.59,3.88-5.48-2.15-.52-3.23-2-3.23-4.37,0-3.3,2.06-5.21,5.63-5.21a5.63,5.63,0,0,1,4.1,1.3,5.11,5.11,0,0,1,1.57,3.88c0,2.46-1,3.88-3.2,4.4C591.53,204.57,592.7,206.14,592.7,209Zm-9.27.33a6,6,0,0,0,.74,3.21,2.33,2.33,0,0,0,2.25,1.1c1.94,0,3-1.47,3-4.28s-1-4.43-3-4.43S583.43,206.51,583.43,209.37Zm.43-9.88c0,2.46.86,3.76,2.52,3.76s2.56-1.33,2.56-3.79-.86-3.73-2.59-3.73S583.86,197.06,583.86,199.49Z" transform="translate(1.18 0.63)"/><path class="logo-cls-1" d="M119.58,215a2.64,2.64,0,0,0,.16-1V195.46a2.69,2.69,0,0,0-.16-1H125a2.58,2.58,0,0,0-.15,1v17.18H130a2.48,2.48,0,0,0,1.23-.19V215Z" transform="translate(1.18 0.63)"/><path class="logo-cls-1" d="M139.94,214a3.1,3.1,0,0,0-.15.71.94.94,0,0,0,0,.25H137a3.47,3.47,0,0,0,.49-1l6.59-18.69a2.32,2.32,0,0,0,.15-.89h4.37a1.5,1.5,0,0,0,.16.83L155.55,214a3.07,3.07,0,0,0,.55,1h-5.88v-.16a2.73,2.73,0,0,0-.15-.8l-1.66-4.89h-6.75Zm7.7-7.17-2.59-7.67-2.59,7.67Z" transform="translate(1.18 0.63)"/><path class="logo-cls-1" d="M162.2,210.42c2.28,1.88,3.3,2.34,5.09,2.34s3.26-1.14,3.26-2.83a2.45,2.45,0,0,0-1.26-2.25,26.16,26.16,0,0,0-2.93-1.42c-3.42-1.47-4.86-3.23-4.86-5.91,0-3.76,2.95-6.25,7.48-6.25a11.74,11.74,0,0,1,5.32,1.2l-.76,3a7.76,7.76,0,0,0-4.59-1.88,2.52,2.52,0,0,0-2.68,2.44c0,1.41.55,1.87,4.16,3.38s4.92,3.23,4.92,6.16a6.75,6.75,0,0,1-2.74,5.57,8.73,8.73,0,0,1-5,1.32,12.25,12.25,0,0,1-6.25-1.63Z" transform="translate(1.18 0.63)"/><path class="logo-cls-1" d="M188,214a2.52,2.52,0,0,0,.15,1h-5.45a2.6,2.6,0,0,0,.16-1v-18.5a2.57,2.57,0,0,0-.16-1h5.45a2.9,2.9,0,0,0-.15,1v7.82h6.9v-7.82a2.79,2.79,0,0,0-.16-1h5.45a2.58,2.58,0,0,0-.15,1V214a2.52,2.52,0,0,0,.15,1h-5.45a2.43,2.43,0,0,0,.16-1v-8.41H188Z" transform="translate(1.18 0.63)"/><path class="logo-cls-1" d="M232,194.44c3.6,0,5.7,1.88,5.7,5.17a4.31,4.31,0,0,1-1.94,3.88,6.66,6.66,0,0,1-1.88.77c2.77.59,4.19,2.28,4.19,5.05A5.44,5.44,0,0,1,232.2,215h-9a3,3,0,0,0,.15-1v-18.5a2.58,2.58,0,0,0-.15-1Zm-2.4,9.05a3.32,3.32,0,0,0,2.13-.58,4.44,4.44,0,0,0,1-3c0-2.12-.92-3.2-2.77-3.2H228.5v6.83Zm.59,9.27q2.72,0,2.71-3.33c0-2.55-1-3.78-3.18-3.78H228.5v7.11Z" transform="translate(1.18 0.63)"/><path class="logo-cls-1" d="M266.1,204.69c0,6.9-3.75,10.62-10.65,10.62-3.51,0-5.91-.86-7.7-2.76a11.22,11.22,0,0,1-2.68-7.86c0-6.83,3.76-10.59,10.66-10.59C262.32,194.1,266.1,198,266.1,204.69Zm-15.64,0c0,5.67,1.66,8.41,5.14,8.41s5.11-2.8,5.11-8.22c0-5.88-1.63-8.56-5.2-8.56C252.16,196.32,250.46,199.09,250.46,204.69Z" transform="translate(1.18 0.63)"/><path class="logo-cls-1" d="M291.17,194.44a2.77,2.77,0,0,0-.16,1v12.43c0,4.75-3.13,7.42-8.71,7.42-5.38,0-8.43-2.7-8.43-7.51V195.46a2.79,2.79,0,0,0-.16-1h5.45a2.77,2.77,0,0,0-.15,1v12.62c0,3,1.72,4.77,4.68,4.77,3.23,0,5-1.85,5-5.14V195.46a2.48,2.48,0,0,0-.16-1Z" transform="translate(1.18 0.63)"/><path class="logo-cls-1" d="M312.88,194.44v2.68a4.73,4.73,0,0,0-1.2-.16h-4v17a2.61,2.61,0,0,0,.15,1h-5.45a2.61,2.61,0,0,0,.15-1V197h-3.94a5.62,5.62,0,0,0-1.32.16v-2.68Z" transform="translate(1.18 0.63)"/><path class="logo-cls-1" d="M324.8,194.44a2.48,2.48,0,0,0-.16,1V214a2.51,2.51,0,0,0,.16,1h-5.45a3,3,0,0,0,.15-1v-18.5a2.9,2.9,0,0,0-.15-1Z" transform="translate(1.18 0.63)"/><path class="logo-cls-1" d="M353.8,204.69c0,6.9-3.75,10.62-10.65,10.62-3.51,0-5.91-.86-7.7-2.76a11.21,11.21,0,0,1-2.67-7.86c0-6.83,3.75-10.59,10.65-10.59C350,194.1,353.8,198,353.8,204.69Zm-15.64,0c0,5.67,1.67,8.41,5.15,8.41s5.11-2.8,5.11-8.22c0-5.88-1.64-8.56-5.21-8.56C339.86,196.32,338.16,199.09,338.16,204.69Z" transform="translate(1.18 0.63)"/><path class="logo-cls-1" d="M378.87,194.44a2.77,2.77,0,0,0-.15,1v12.43c0,4.75-3.14,7.42-8.71,7.42-5.39,0-8.44-2.7-8.44-7.51V195.46a2.79,2.79,0,0,0-.16-1h5.45a2.77,2.77,0,0,0-.15,1v12.62c0,3,1.72,4.77,4.68,4.77,3.23,0,5-1.85,5-5.14V195.46a2.5,2.5,0,0,0-.15-1Z" transform="translate(1.18 0.63)"/><path class="logo-cls-1" d="M399.07,194.44v2.34a3,3,0,0,0-1-.15h-5.54v6.89H398a2.88,2.88,0,0,0,1.11-.12v2.37a2.76,2.76,0,0,0-1.07-.12h-5.48v7h5.35a3.36,3.36,0,0,0,1.2-.16V215H387.22a2.74,2.74,0,0,0,.15-1V195.46a2.77,2.77,0,0,0-.15-1Z" transform="translate(1.18 0.63)"/><path class="logo-cls-2" d="M429.37,211.37a10.71,10.71,0,0,1-1.12-2.68,5.92,5.92,0,0,0-2.18-2.59,7.5,7.5,0,0,0,1.61,1,5,5,0,0,0,1.49.34,11.72,11.72,0,0,1,2.92.29,2,2,0,0,1,1.37,1.52,2.61,2.61,0,0,1-.49,2,2.68,2.68,0,0,1-1.72,1A2.06,2.06,0,0,1,429.37,211.37Z" transform="translate(1.18 0.63)"/><path class="logo-cls-2" d="M422,213.08a12.06,12.06,0,0,1,1.4-2.59,5.45,5.45,0,0,0,.55-1.43,7.88,7.88,0,0,0,.11-1.87,6,6,0,0,0,.92,3.25,11,11,0,0,1,1.59,2.44,2.08,2.08,0,0,1-.33,2.05,2.76,2.76,0,0,1-1.84.83,2.53,2.53,0,0,1-1.89-.71A1.94,1.94,0,0,1,422,213.08Z" transform="translate(1.18 0.63)"/><path class="logo-cls-2" d="M416,208.32a11,11,0,0,1,2.87-.5,5.84,5.84,0,0,0,3-1.56,5.71,5.71,0,0,0-2,2.75,11.06,11.06,0,0,1-.94,2.79,2,2,0,0,1-1.77,1,2.43,2.43,0,0,1-1.81-.91A2.19,2.19,0,0,1,416,208.32Z" transform="translate(1.18 0.63)"/><path class="logo-cls-2" d="M416,200.71a12.1,12.1,0,0,1,2.2,1.94,5.69,5.69,0,0,0,3.06,1.37,5.76,5.76,0,0,0-3.35.18,11.65,11.65,0,0,1-2.74,1,2.11,2.11,0,0,1-1.93-.77,3,3,0,0,1-.4-2,2.74,2.74,0,0,1,1.1-1.69A2,2,0,0,1,416,200.71Z" transform="translate(1.18 0.63)"/><path class="logo-cls-2" d="M422,196a11,11,0,0,1-.15,2.92,5.81,5.81,0,0,0,.84,3.28,5.91,5.91,0,0,0-2.24-2.54,10.48,10.48,0,0,1-2.5-1.51,2,2,0,0,1-.57-2,2.4,2.4,0,0,1,1.29-1.56,3.59,3.59,0,0,1,1-.33,2.76,2.76,0,0,1,1,.14A2,2,0,0,1,422,196Z" transform="translate(1.18 0.63)"/><path class="logo-cls-2" d="M429.37,197.67a11.71,11.71,0,0,1-2.37,1.7,5.77,5.77,0,0,0-2,2.68,5.74,5.74,0,0,0,.57-3.3,12.29,12.29,0,0,1-.38-2.9,2.06,2.06,0,0,1,1.18-1.7,2.87,2.87,0,0,1,2,0,3,3,0,0,1,1.41,1.44A2.11,2.11,0,0,1,429.37,197.67Z" transform="translate(1.18 0.63)"/><path class="logo-cls-2" d="M432.7,204.52a11.09,11.09,0,0,1-2.84-.79,5.69,5.69,0,0,0-3.38.09,6,6,0,0,0,3-1.63,10.73,10.73,0,0,1,2-2.09,2.05,2.05,0,0,1,2-.13,2.67,2.67,0,0,1,1,3.62A2,2,0,0,1,432.7,204.52Z" transform="translate(1.18 0.63)"/><polygon class="logo-cls-3" points="331.53 168.28 331.49 68.36 288.54 68.36 288.54 70.75 298.12 70.75 298.12 168.28 288.58 168.28 288.58 170.97 341.08 170.97 341.08 168.28 331.53 168.28"/><polygon class="logo-cls-3" points="269.49 168.28 269.49 22.55 226.54 22.55 226.54 24.93 236.09 24.93 236.09 168.28 226.54 168.28 226.54 170.97 279.04 170.97 279.04 168.28 269.49 168.28"/><polygon class="logo-cls-3" points="582.96 168.28 546.82 90.51 563.23 74.45 583.27 70.75 583.27 68.36 540.32 68.36 540.32 70.75 559.29 74.09 524.04 109.35 518.13 109.35 518.13 22.55 475.18 22.55 475.18 24.93 484.72 24.93 484.72 168.28 475.18 168.28 475.18 170.97 527.67 170.97 527.67 168.28 518.13 168.28 518.13 111.73 523.22 111.73 549.55 168.28 539.36 168.28 539.36 170.97 591.86 170.97 591.86 168.28 582.96 168.28"/><path class="logo-cls-3" d="M457.42,167.65v-73C457,74.2,442.17,63.15,422.2,67c-11.86,2.27-20.51,9.26-28.37,17.84a27.6,27.6,0,0,0-1.66,2.23V67.73H349.24v2.39h9.5v97.53H349.2v2.69h52.49v-2.69h-9.52v-76l.15,4.32c0-9.37,12.25-20.43,21.51-19.39,5.63.62,9.23,3.89,10.25,9.39a65.59,65.59,0,0,1,.83,11.39c.06,17.07,0,56.66,0,70.28h-9.73v2.69h52.49v-2.69Z" transform="translate(1.18 0.63)"/><path class="cls-4" d="M206.86,79.25c-8.76-8.35-19.82-12.1-27.54-12.1a38,38,0,0,0-17.31,4,26.08,26.08,0,0,0-8.42,7.23V21.92h-43v2.39h9.55V125.38A104.39,104.39,0,0,1,101,146c-28.78,23.43-66.42,27.58-88.07,1-15.79-19.4-14.62-46.83,6.84-64.3,15.41-12.55,35.46-16.26,49.39-6.24,2,1.38,1.9,2.08,2.42,1.66s-.51-1.93-1.37-2.73c-13-11.82-35.43-7-51.49,6C-3.78,99.69-7.18,131.72,8.4,150.87c23,28.26,63.63,21.48,93.95-3.21A104.24,104.24,0,0,0,120.17,129v38.67h-9.55v2.69h43V158.85a22.27,22.27,0,0,0,7.38,7c4,2.72,9.8,4.8,17.52,4.8a42.88,42.88,0,0,0,27.95-11.26c9-8.14,15.85-20.86,15.85-40C222.29,100.73,215.62,87.59,206.86,79.25ZM185.58,146c-3.34,9.38-9.18,16.69-18.56,16.69-6.39,0-10.87-4.6-13.43-9.2V83.83c2.5-4.59,8.3-9.17,14.89-9.17s11.89,5,15.43,12.72,5.64,18.57,5.64,30.25C189.55,125.34,188.71,136.82,185.58,146Z" transform="translate(1.18 0.63)"/><path class="cls-4" d="M599.2,164.17v.71a1.94,1.94,0,0,0-.48-.06H597v6.79a1.24,1.24,0,0,0,.05.38h-1.39a1.64,1.64,0,0,0,0-.38v-6.79H594a1.86,1.86,0,0,0-.49.06v-.71Z" transform="translate(1.18 0.63)"/><path class="cls-4" d="M600,171.65V172h-.7l.11-.37,1.11-7.11v-.34h1.17c0,.13,0,.21,0,.3l2.09,6.07,2.1-6.11a.63.63,0,0,0,0-.2.18.18,0,0,0,0-.06h1.18v.26l1,7.22a2.17,2.17,0,0,0,.09.34h-1.39a.62.62,0,0,0,0-.17.76.76,0,0,0,0-.15l-.82-5.84-2,5.82a1,1,0,0,0-.06.34h-1.1a.31.31,0,0,0,0-.09.77.77,0,0,0-.06-.21l-2-5.72Z" transform="translate(1.18 0.63)"/><path class="cls-5" d="M329.75,25.72a16.81,16.81,0,0,1-17.17,16.86A17.07,17.07,0,0,1,295.26,25c.23-9.86,7.89-17,18-16.77C322.8,8.5,329.86,16,329.75,25.72Z" transform="translate(1.18 0.63)"/><path class="logo-cls-2" d="M335.61,31.76c-1.78-.51-2.52-2.31-5.11-2.73,2.52.52,3.91-.9,5.77-.74a1.83,1.83,0,1,1-.66,3.47Z" transform="translate(1.18 0.63)"/><path class="logo-cls-2" d="M333.39,37.35c-1.57-.94-1.93-2.91-4.27-3.94a6.23,6.23,0,0,0,3.11.57,6.35,6.35,0,0,1,2.64.15,1.84,1.84,0,1,1-1.48,3.22Z" transform="translate(1.18 0.63)"/><path class="logo-cls-2" d="M329.78,42.16c-1.31-1.34-1.07-3.28-3.08-4.88,1.93,1.69,3.8,1.11,5.35,2.16a1.84,1.84,0,1,1-2.27,2.72Z" transform="translate(1.18 0.63)"/><path class="logo-cls-2" d="M325,45.87a6.46,6.46,0,0,1-.61-2.57,6.26,6.26,0,0,0-1.1-3c1.42,2.13,3.43,2.13,4.62,3.51a1.84,1.84,0,1,1-2.91,2Z" transform="translate(1.18 0.63)"/><path class="logo-cls-2" d="M319.53,48.26c-.46-1.77.68-3.41-.26-5.8a6.45,6.45,0,0,0,1.8,2.6,6.25,6.25,0,0,1,1.77,2,1.84,1.84,0,1,1-3.31,1.24Z" transform="translate(1.18 0.63)"/><path class="logo-cls-2" d="M313.61,49.19c0-1.88,1.49-3.07,1.16-5.67.23,2.56,2,3.47,2.35,5.3a1.84,1.84,0,1,1-3.51.37Z" transform="translate(1.18 0.63)"/><path class="logo-cls-2" d="M307.65,48.74c.41-1.82,2.18-2.72,2.46-5.28a6.29,6.29,0,0,0,.39,3.14,6.22,6.22,0,0,1,.65,2.56c-.07,1.54-1.16,2.26-2,2.1A1.93,1.93,0,0,1,307.65,48.74Z" transform="translate(1.18 0.63)"/><path class="logo-cls-2" d="M302,46.81c.85-1.66,2.75-2,3.66-4.49-1,2.38.13,4-.38,5.8A1.83,1.83,0,1,1,302,46.81Z" transform="translate(1.18 0.63)"/><path class="logo-cls-2" d="M296.92,43.56c1.22-1.37,3.22-1.34,4.68-3.45a6.28,6.28,0,0,0-1.15,3,6.63,6.63,0,0,1-.65,2.56,1.84,1.84,0,1,1-2.88-2.06Z" transform="translate(1.18 0.63)"/><path class="logo-cls-2" d="M292.88,39.11c1.56-1,3.4-.43,5.37-2.13-2,1.59-1.81,3.55-3.13,4.87a1.84,1.84,0,1,1-2.24-2.74Z" transform="translate(1.18 0.63)"/><path class="logo-cls-2" d="M290.08,33.79a6.54,6.54,0,0,1,2.65-.14,6.32,6.32,0,0,0,3.11-.56c-2.37,1-2.71,3-4.28,3.92a2.35,2.35,0,0,1-1.82.29,1.75,1.75,0,0,1-1-.93,1.72,1.72,0,0,1,0-1.39A2.33,2.33,0,0,1,290.08,33.79Z" transform="translate(1.18 0.63)"/><path class="logo-cls-2" d="M288.73,27.94c1.86-.15,3.2,1.28,5.73.78-2.57.4-3.31,2.2-5.11,2.7a2,2,0,0,1-2.63-1.33A2,2,0,0,1,288.73,27.94Z" transform="translate(1.18 0.63)"/><path class="logo-cls-2" d="M288.84,22c1.8.29,2.83,2,5.4,2.13-2.57-.22-3.81,1.34-5.64,1.38a2.41,2.41,0,0,1-1.73-.62,1.73,1.73,0,0,1-.46-1.3A1.91,1.91,0,0,1,288.84,22Z" transform="translate(1.18 0.63)"/><path class="logo-cls-2" d="M290.38,16.16c1.72.75,2.21,2.62,4.7,3.37-2.43-.84-3.95.4-5.78,0a2,2,0,0,1-1.7-2.4A2,2,0,0,1,290.38,16.16Z" transform="translate(1.18 0.63)"/><path class="logo-cls-2" d="M293.34,10.93a6.73,6.73,0,0,1,1.55,2.15A6.21,6.21,0,0,0,297,15.4c-2.15-1.45-4-.67-5.61-1.49a2.31,2.31,0,0,1-1.23-1.36,1.79,1.79,0,0,1,.22-1.39A1.91,1.91,0,0,1,293.34,10.93Z" transform="translate(1.18 0.63)"/><path class="logo-cls-2" d="M297.57,6.63c1.11,1.51.62,3.42,2.39,5.29-1.72-2-3.61-1.64-5-2.89a1.94,1.94,0,0,1-.26-2.93A1.94,1.94,0,0,1,297.57,6.63Z" transform="translate(1.18 0.63)"/><path class="logo-cls-2" d="M302.77,3.62c.69,1.73-.29,3.41,1,5.72-1.13-2.32-3.09-2.55-4.11-4.12a1.92,1.92,0,0,1,.52-2.87A1.92,1.92,0,0,1,302.77,3.62Z" transform="translate(1.18 0.63)"/><path class="logo-cls-2" d="M308.52,2c.26,1.84-1.09,3.31-.46,5.8A6.24,6.24,0,0,0,306.6,5a6.36,6.36,0,0,1-1.5-2.18c-.47-1.47.31-2.52,1.19-2.67A1.92,1.92,0,0,1,308.52,2Z" transform="translate(1.18 0.63)"/><path class="logo-cls-2" d="M314.48,1.7a6.34,6.34,0,0,1-1,2.46,6.32,6.32,0,0,0-.79,3.07c0-2.57-1.61-3.69-1.77-5.55a1.92,1.92,0,0,1,1.74-2.31C313.57-.68,314.59.16,314.48,1.7Z" transform="translate(1.18 0.63)"/><path class="logo-cls-2" d="M320.37,2.78c-.61,1.76-2.46,2.45-3,5,.66-2.53-.7-3.91-.44-5.77A1.94,1.94,0,0,1,319.19.1,1.94,1.94,0,0,1,320.37,2.78Z" transform="translate(1.18 0.63)"/><path class="logo-cls-2" d="M325.81,5.36c-1.05,1.54-3,1.67-4.17,4,1.27-2.24.34-4,1.06-5.72a1.92,1.92,0,0,1,2.66-1.2A1.94,1.94,0,0,1,325.81,5.36Z" transform="translate(1.18 0.63)"/><path class="logo-cls-2" d="M330.4,9.27c-1.4,1.18-3.35.85-5.1,2.77a6.33,6.33,0,0,0,1.54-2.76,6.41,6.41,0,0,1,1-2.46,1.91,1.91,0,0,1,2.9-.47,1.78,1.78,0,0,1,.53,1.29A2.36,2.36,0,0,1,330.4,9.27Z" transform="translate(1.18 0.63)"/><path class="logo-cls-2" d="M333.8,14.23c-1.69.8-3.47,0-5.65,1.35,2.27-1.31,2.3-3.24,3.8-4.37a1.93,1.93,0,0,1,2.93.3A2,2,0,0,1,333.8,14.23Z" transform="translate(1.18 0.63)"/><path class="logo-cls-2" d="M335.79,19.89c-1.83.36-3.29-.91-5.79-.11,2.49-.69,3.07-2.57,4.8-3.28a1.93,1.93,0,0,1,2.73,1A1.94,1.94,0,0,1,335.79,19.89Z" transform="translate(1.18 0.63)"/><path class="logo-cls-2" d="M336.42,25.83c-1.87-.06-3.07-1.64-5.63-1.46a6.3,6.3,0,0,0,3-.95,6.28,6.28,0,0,1,2.41-1.1c1.52-.2,2.42.75,2.42,1.63A1.93,1.93,0,0,1,336.42,25.83Z" transform="translate(1.18 0.63)"/><path class="logo-cls-1" d="M372.06,228.55a23.77,23.77,0,0,1-4.9-.51c-10.86-2.24-17.11-7.53-22.12-12.3l-.58-.56a.55.55,0,0,1-.16-.38.55.55,0,0,1,.16-.39c.23-.23.45-.47.67-.72l.26-.3a.51.51,0,0,1,.39-.18h0a.56.56,0,0,1,.39.14l1.19,1.11c5.59,5.22,10.88,10.14,20.15,12.11a23,23,0,0,0,4.73.5c6.32,0,10.91-2.56,12.27-6.84a3.37,3.37,0,0,0,.17-2,.75.75,0,0,0-.08-.18c-.24-.54,0-.8.19-.9a.59.59,0,0,1,.23,0,1,1,0,0,1,.92.69,4.54,4.54,0,0,1-.08,2.8C384.32,225.51,379,228.55,372.06,228.55Z" transform="translate(1.18 0.63)"/></svg>