<svg id="tel" data-name="Layer 1" xmlns="http://www.w3.org/2000/svg" viewBox="0 0 350.76 582.89"><defs><style></style></defs><title>tel</title><path class="tel-cls-1" d="M335.86,2.5,26.66,1.61A20,20,0,0,0,6.6,21.55l-1.55,542A20,20,0,0,0,25,583.61l309.2.89a20,20,0,0,0,20.05-20l1.56-542A20,20,0,0,0,335.86,2.5ZM123,21.29l116.4.33a19.4,19.4,0,0,1-.12,38.8l-116.4-.33a19.4,19.4,0,0,1,.12-38.8Zm60.71,543.36a29.1,29.1,0,1,1,29.1-29.1A29.1,29.1,0,0,1,183.72,564.65Zm132-77.21-271.6-.78,1.17-407.4,271.6.78Z" transform="translate(-5.05 -1.61)"/></svg>