<svg id="twitter" data-name="Layer 1" xmlns="http://www.w3.org/2000/svg" viewBox="0 0 122.51 99.57"><title>Untitled-6</title><path d="M39.89,101.54c46.24,0,71.52-38.31,71.52-71.52,0-1.09,0-2.18-.08-3.25a50.9,50.9,0,0,0,12.54-13,50.23,50.23,0,0,1-14.43,4,25.27,25.27,0,0,0,11-13.9,50.62,50.62,0,0,1-16,6.1A25.14,25.14,0,0,0,61.05,27.1a25.38,25.38,0,0,0,.65,5.74A71.45,71.45,0,0,1,9.88,6.57a25.17,25.17,0,0,0,7.79,33.56A24.93,24.93,0,0,1,6.28,37v.32A25.14,25.14,0,0,0,26.43,61.94a25.17,25.17,0,0,1-6.61.89,24.55,24.55,0,0,1-4.73-.47A25.17,25.17,0,0,0,38.57,79.83,50.38,50.38,0,0,1,7.35,90.59a51.65,51.65,0,0,1-6-.35,71.06,71.06,0,0,0,38.53,11.3" transform="translate(-1.36 -1.97)"/></svg>