<svg id="learn-more" xmlns="http://www.w3.org/2000/svg" viewBox="0 0 35.57 40.67"><defs><style>.cls-1{fill:#f499b8;}.cls-2{fill:#f89aba;}.cls-3{font-size:36.74px;fill:#fff;font-family:JosefinSans-SemiBold, Josefin Sans;font-weight:700;}</style></defs><title>view-more</title><path class="cls-1" d="M33.56,22.09c-1.22-.35-1.73-1.58-3.49-1.87,1.72.35,2.67-.61,3.94-.5a1.25,1.25,0,1,1,.19,2.49A1.18,1.18,0,0,1,33.56,22.09Z" transform="translate(0 4.25)"/><path class="cls-1" d="M32,25.89c-1.07-.63-1.31-2-2.91-2.68a4.29,4.29,0,0,0,2.12.39,4.21,4.21,0,0,1,1.8.1,1.25,1.25,0,0,1-.39,2.47,1.27,1.27,0,0,1-.61-.28Z" transform="translate(0 4.25)"/><path class="cls-1" d="M29.58,29.18c-.89-.92-.73-2.24-2.1-3.34,1.32,1.16,2.59.77,3.65,1.48a1.26,1.26,0,1,1-1.55,1.86Z" transform="translate(0 4.25)"/><path class="cls-1" d="M26.35,31.71A4.46,4.46,0,0,1,25.93,30a4.25,4.25,0,0,0-.75-2c1,1.45,2.34,1.45,3.15,2.39a1.25,1.25,0,1,1-2,1.38Z" transform="translate(0 4.25)"/><path class="cls-1" d="M22.59,33.34c-.32-1.21.47-2.33-.18-4a4.36,4.36,0,0,0,1.23,1.77,4.44,4.44,0,0,1,1.21,1.34,1.25,1.25,0,0,1-2,1.46,1.23,1.23,0,0,1-.23-.61Z" transform="translate(0 4.25)"/><path class="cls-1" d="M18.56,34c0-1.28,1-2.1.79-3.87.15,1.75,1.34,2.37,1.6,3.62a1.25,1.25,0,1,1-2.39.25Z" transform="translate(0 4.25)"/><path class="cls-1" d="M14.49,33.66c.28-1.24,1.49-1.85,1.67-3.6a4.47,4.47,0,0,0,.27,2.14A4.28,4.28,0,0,1,16.88,34c-.05,1-.8,1.54-1.4,1.43a1.31,1.31,0,0,1-1-1.55A.85.85,0,0,1,14.49,33.66Z" transform="translate(0 4.25)"/><path class="cls-1" d="M10.61,32.34c.58-1.12,1.88-1.38,2.5-3-.67,1.62.09,2.73-.26,4a1.3,1.3,0,0,1-1.53,1l-.17,0a1.31,1.31,0,0,1-.69-1.73A1.17,1.17,0,0,1,10.61,32.34Z" transform="translate(0 4.25)"/><path class="cls-1" d="M7.17,30.13c.83-.94,2.2-.91,3.19-2.35a4.4,4.4,0,0,0-.78,2,4.4,4.4,0,0,1-.45,1.74,1.3,1.3,0,0,1-1.7.7l-.21-.11A1.3,1.3,0,0,1,7,30.27.86.86,0,0,1,7.17,30.13Z" transform="translate(0 4.25)"/><path class="cls-1" d="M4.41,27.1c1.07-.72,2.29-.31,3.67-1.45C6.7,26.73,6.84,28.06,5.94,29a1.33,1.33,0,0,1-1.87.2l-.13-.12a1.33,1.33,0,0,1,.31-1.85Z" transform="translate(0 4.25)"/><path class="cls-1" d="M2.51,23.47a4.56,4.56,0,0,1,1.8-.1A4.23,4.23,0,0,0,6.44,23c-1.62.7-1.85,2-2.93,2.67a1.61,1.61,0,0,1-1.23.2,1.19,1.19,0,0,1-.71-.63,1.17,1.17,0,0,1,0-1A1.58,1.58,0,0,1,2.51,23.47Z" transform="translate(0 4.25)"/><path class="cls-1" d="M1.58,19.48c1.28-.1,2.19.87,3.91.53-1.75.27-2.25,1.5-3.48,1.84a1.33,1.33,0,0,1-1.73-.71l-.06-.2a1.33,1.33,0,0,1,1.19-1.45Z" transform="translate(0 4.25)"/><path class="cls-1" d="M1.7,15.4c1.23.2,1.93,1.37,3.69,1.46-1.8-.16-2.69.93-3.89.93a1.61,1.61,0,0,1-1.18-.42A1.19,1.19,0,0,1,0,16.49a1.31,1.31,0,0,1,1.46-1.14A1,1,0,0,1,1.7,15.4Z" transform="translate(0 4.25)"/><path class="cls-1" d="M2.7,11.45c1.18.51,1.51,1.78,3.21,2.29-1.66-.57-2.7.27-3.95,0A1.31,1.31,0,0,1,.78,12.3a.58.58,0,0,1,0-.19,1.33,1.33,0,0,1,1.73-.74Z" transform="translate(0 4.25)"/><path class="cls-1" d="M4.7,7.88A4.51,4.51,0,0,1,5.79,9.35a4.23,4.23,0,0,0,1.46,1.57c-1.46-1-2.71-.45-3.82-1A1.6,1.6,0,0,1,2.59,9,1.17,1.17,0,0,1,2.7,8a1.3,1.3,0,0,1,1.81-.32Z" transform="translate(0 4.25)"/><path class="cls-1" d="M7.62,5C8.37,6,8,7.28,9.24,8.55c-1.17-1.35-2.46-1.11-3.41-2A1.31,1.31,0,0,1,5.5,4.73a1.43,1.43,0,0,1,.15-.18,1.34,1.34,0,0,1,1.87.24S7.59,4.89,7.62,5Z" transform="translate(0 4.25)"/><path class="cls-1" d="M11.16,2.9c.47,1.18-.2,2.32.65,3.89C11,5.21,9.7,5.05,9,4a1.32,1.32,0,0,1,.13-1.85A1.07,1.07,0,0,1,9.36,2a1.32,1.32,0,0,1,1.73.7A1.87,1.87,0,0,1,11.16,2.9Z" transform="translate(0 4.25)"/><path class="cls-1" d="M15.09,1.79c.17,1.26-.75,2.26-.32,4a4.24,4.24,0,0,0-1-1.91,4.44,4.44,0,0,1-1-1.49,1.3,1.3,0,0,1,.5-1.77A1.48,1.48,0,0,1,13.56.5a1.31,1.31,0,0,1,1.51,1.07A1.64,1.64,0,0,1,15.09,1.79Z" transform="translate(0 4.25)"/><path class="cls-1" d="M19.14,1.58a4.25,4.25,0,0,1-.64,1.68A4.26,4.26,0,0,0,18,5.35c0-1.75-1.1-2.51-1.21-3.78a1.3,1.3,0,0,1,1-1.54.63.63,0,0,1,.19,0C18.52,0,19.22.53,19.14,1.58Z" transform="translate(0 4.25)"/><path class="cls-1" d="M23.17,2.32C22.75,3.52,21.49,4,21.11,5.7,21.57,4,20.64,3,20.82,1.77A1.32,1.32,0,0,1,22.16.47l.2,0a1.36,1.36,0,0,1,.87,1.69Z" transform="translate(0 4.25)"/><path class="cls-1" d="M26.87,4.08c-.71,1-2,1.14-2.84,2.73.86-1.52.23-2.72.72-3.89A1.3,1.3,0,0,1,26.37,2a.68.68,0,0,1,.2.07A1.32,1.32,0,0,1,27,3.92Z" transform="translate(0 4.25)"/><path class="cls-1" d="M30,6.79c-.95.81-2.28.59-3.47,1.89a4.41,4.41,0,0,0,1-1.89,4.3,4.3,0,0,1,.67-1.68A1.29,1.29,0,0,1,30,4.62a1.08,1.08,0,0,1,.24.18,1.14,1.14,0,0,1,.37.87A1.58,1.58,0,0,1,30,6.79Z" transform="translate(0 4.25)"/><path class="cls-1" d="M32.32,10.13c-1.15.55-2.37,0-3.85.92,1.55-.9,1.57-2.21,2.59-3a1.32,1.32,0,0,1,1.87,0,1,1,0,0,1,.13.16,1.34,1.34,0,0,1-.55,1.8Z" transform="translate(0 4.25)"/><path class="cls-1" d="M33.7,14c-1.25.25-2.25-.62-4-.08,1.69-.46,2.09-1.75,3.28-2.23a1.33,1.33,0,0,1,1.79.54.77.77,0,0,1,.07.16,1.32,1.32,0,0,1-1,1.58Z" transform="translate(0 4.25)"/><path class="cls-1" d="M34.11,18c-1.28,0-2.09-1.12-3.84-1a4.32,4.32,0,0,0,2-.66,4.35,4.35,0,0,1,1.64-.74,1.34,1.34,0,0,1,1.66,1.11,1.32,1.32,0,0,1-1.34,1.3Z" transform="translate(0 4.25)"/><circle class="cls-2" cx="17.8" cy="22.31" r="12.14"/><text class="cls-3" transform="translate(9.61 31.23)">+</text></svg>